<svg width="57" height="27" viewBox="0 0 57 27" fill="none" xmlns="http://www.w3.org/2000/svg">
<path d="M23.948 0.512V1.232C23.18 1.328 22.604 1.532 22.22 1.844C21.836 2.132 21.572 2.6 21.428 3.248C21.308 3.896 21.248 4.808 21.248 5.984V26.072C20.96 26.048 20.66 26.036 20.348 26.036C20.06 26.036 19.748 26.048 19.412 26.072L3.788 6.272V20.096C3.788 21.416 3.86 22.436 4.004 23.156C4.148 23.852 4.46 24.356 4.94 24.668C5.444 24.956 6.224 25.16 7.28 25.28V26C6.824 25.952 6.224 25.928 5.48 25.928C4.736 25.904 4.04 25.892 3.392 25.892C2.84 25.892 2.276 25.904 1.7 25.928C1.124 25.928 0.644 25.952 0.26 26V25.28C1.028 25.16 1.604 24.956 1.988 24.668C2.372 24.38 2.624 23.912 2.744 23.264C2.888 22.592 2.96 21.68 2.96 20.528V4.328C2.96 3.44 2.888 2.792 2.744 2.384C2.624 1.952 2.36 1.664 1.952 1.52C1.568 1.352 1.004 1.256 0.26 1.232V0.512C0.644 0.536 1.124 0.559999 1.7 0.583999C2.276 0.607999 2.84 0.619998 3.392 0.619998C3.968 0.619998 4.52 0.607999 5.048 0.583999C5.576 0.559999 6.056 0.536 6.488 0.512L20.42 17.684V6.416C20.42 5.096 20.348 4.088 20.204 3.392C20.06 2.672 19.736 2.156 19.232 1.844C18.752 1.532 17.984 1.328 16.928 1.232V0.512C17.384 0.536 17.984 0.559999 18.728 0.583999C19.472 0.607999 20.168 0.619998 20.816 0.619998C21.392 0.619998 21.956 0.607999 22.508 0.583999C23.084 0.559999 23.564 0.536 23.948 0.512ZM48.0925 0.512C47.9965 1.736 47.9245 2.912 47.8765 4.04C47.8525 5.168 47.8405 6.032 47.8405 6.632C47.8405 7.16 47.8525 7.664 47.8765 8.144C47.9005 8.624 47.9245 9.032 47.9485 9.368H47.1205C46.7365 7.352 46.2445 5.756 45.6445 4.58C45.0685 3.404 44.3725 2.576 43.5565 2.096C42.7405 1.592 41.7805 1.34 40.6765 1.34H39.8485V21.896C39.8485 22.856 39.9445 23.576 40.1365 24.056C40.3525 24.536 40.7365 24.86 41.2885 25.028C41.8405 25.172 42.6445 25.256 43.7005 25.28V26C42.9565 25.976 41.9605 25.952 40.7125 25.928C39.4885 25.904 38.2045 25.892 36.8605 25.892C35.5405 25.892 34.2925 25.904 33.1165 25.928C31.9405 25.952 30.9925 25.976 30.2725 26V25.28C31.3525 25.256 32.1685 25.172 32.7205 25.028C33.2725 24.86 33.6445 24.536 33.8365 24.056C34.0285 23.576 34.1245 22.856 34.1245 21.896V1.34H33.3325C32.2285 1.34 31.2685 1.592 30.4525 2.096C29.6365 2.576 28.9405 3.404 28.3645 4.58C27.7885 5.732 27.2845 7.328 26.8525 9.368H26.0245C26.0725 9.032 26.0965 8.624 26.0965 8.144C26.1205 7.664 26.1325 7.16 26.1325 6.632C26.1325 6.032 26.1085 5.168 26.0605 4.04C26.0365 2.912 25.9765 1.736 25.8805 0.512C26.9845 0.536 28.1845 0.559999 29.4805 0.583999C30.8005 0.607999 32.1205 0.619998 33.4405 0.619998C34.7605 0.619998 35.9485 0.619998 37.0045 0.619998C38.0845 0.619998 39.2725 0.619998 40.5685 0.619998C41.8885 0.619998 43.2085 0.607999 44.5285 0.583999C45.8485 0.559999 47.0365 0.536 48.0925 0.512Z" fill="white"/>
<path d="M53.8873 20.96C54.8233 20.96 55.5673 21.212 56.1193 21.716C56.6713 22.196 56.9473 22.868 56.9473 23.732C56.9473 24.596 56.6713 25.28 56.1193 25.784C55.5673 26.264 54.8233 26.504 53.8873 26.504C52.9513 26.504 52.2073 26.264 51.6553 25.784C51.1033 25.28 50.8273 24.596 50.8273 23.732C50.8273 22.868 51.1033 22.196 51.6553 21.716C52.2073 21.212 52.9513 20.96 53.8873 20.96Z" fill="#41EAD4"/>
</svg>
